<svg xmlns="http://www.w3.org/2000/svg" width="1516.569" height="147.022" viewBox="0 0 1516.569 147.022">
  <path id="Path_1" data-name="Path 1" d="M32.9-60.308v48.153L81.036-69.114a46.651,46.651,0,0,1,5.9-6.089,10.006,10.006,0,0,1,6.481-1.967,11.115,11.115,0,0,1,8.545,3.513,12.137,12.137,0,0,1,3.261,8.572Q105.226-59,99.695-53l-29.8,32.039,34.344,55.835a72.2,72.2,0,0,1,5.449,10.165,21.956,21.956,0,0,1,1.816,8.478A11.21,11.21,0,0,1,99.695,64.851a13.271,13.271,0,0,1-8.338-2.483,20.478,20.478,0,0,1-5.449-6.6q-2.229-4.122-3.963-7.495L52.966-2.319,32.9,19.509V47.895q0,8.619-3.467,12.788a11.072,11.072,0,0,1-8.916,4.169,10.918,10.918,0,0,1-6.027-1.874,12.466,12.466,0,0,1-4.458-5.059,18.265,18.265,0,0,1-1.4-6.089q-.248-3.466-.248-10.024V-60.308q0-8.431,3.261-12.647a10.62,10.62,0,0,1,8.875-4.216A11.039,11.039,0,0,1,29.479-73Q32.9-68.833,32.9-60.308ZM133.544,5.738V-60.308q0-8.431,3.344-12.647a10.679,10.679,0,0,1,8.793-4.216,10.931,10.931,0,0,1,9.04,4.216q3.344,4.216,3.344,12.647V7.237a69.387,69.387,0,0,0,2.27,19.252,22.11,22.11,0,0,0,8.049,11.991q5.779,4.263,16.182,4.263,14.365,0,20.309-8.666T210.819,7.8V-60.308q0-8.525,3.3-12.694a10.693,10.693,0,0,1,8.834-4.169A11.039,11.039,0,0,1,231.913-73q3.426,4.169,3.426,12.694V5.738q0,16.113-2.766,26.887a42.647,42.647,0,0,1-10.444,18.924,39.767,39.767,0,0,1-15.356,10.118A59.809,59.809,0,0,1,186.3,64.851q-13.952,0-24.025-3.419a37.615,37.615,0,0,1-16.429-10.586q-6.357-7.167-9.329-18.362T133.544,5.738ZM302.707,41.805l-19.4-87.5V49.113q0,7.869-3.1,11.8a10.452,10.452,0,0,1-16.305.047q-3.137-3.888-3.137-11.851V-59.559q0-8.994,4.128-12.132t11.145-3.138h7.6q6.852,0,9.948,1.405a8.942,8.942,0,0,1,4.582,5.059,86.186,86.186,0,0,1,3.385,11.9L319.136,18.76l17.585-75.227a86.181,86.181,0,0,1,3.385-11.9,8.942,8.942,0,0,1,4.582-5.059q3.1-1.405,9.948-1.405h7.6q7.018,0,11.145,3.138t4.128,12.132V49.113q0,7.869-3.1,11.8a10.015,10.015,0,0,1-8.3,3.935,9.8,9.8,0,0,1-8.008-3.935q-3.137-3.935-3.137-11.8V-45.694l-19.4,87.5q-1.9,8.525-3.1,12.507a17.5,17.5,0,0,1-4.417,7.26q-3.22,3.279-8.916,3.279a12.236,12.236,0,0,1-7.265-2.108,14.5,14.5,0,0,1-4.623-5.387,33.217,33.217,0,0,1-2.6-7.26Q303.7,46.115,302.707,41.805Zm177.419,5.153L474.346,29.72H425.141l-5.779,17.612q-3.385,10.305-5.779,13.912t-7.843,3.607a10.848,10.848,0,0,1-8.173-3.841,12.492,12.492,0,0,1-3.55-8.712,21.841,21.841,0,0,1,.826-5.808q.826-3,2.724-8.338l30.96-89.185q1.321-3.841,3.178-9.228a49.348,49.348,0,0,1,3.963-8.947,17.08,17.08,0,0,1,5.531-5.761,15.344,15.344,0,0,1,8.462-2.2,15.506,15.506,0,0,1,8.545,2.2,17.378,17.378,0,0,1,5.531,5.668,41.713,41.713,0,0,1,3.55,7.448q1.445,3.981,3.674,10.633L502.582,37.4Q506.3,47.52,506.3,52.11a12.963,12.963,0,0,1-3.509,8.759,10.892,10.892,0,0,1-8.462,3.981,9.884,9.884,0,0,1-4.954-1.171A10.513,10.513,0,0,1,485.9,60.5a30.609,30.609,0,0,1-3.013-6.183Q481.281,50.143,480.126,46.958ZM431.581,8.829h36.161L449.5-47.848ZM557.235,3.77h-8.586V47.895q0,8.712-3.385,12.834a10.886,10.886,0,0,1-8.834,4.122,10.674,10.674,0,0,1-9.081-4.309q-3.22-4.309-3.22-12.647V-57.779q0-8.993,3.55-13.022t11.476-4.028h39.876a106.888,106.888,0,0,1,14.118.8A32.252,32.252,0,0,1,603.716-70.8a30.747,30.747,0,0,1,10.072,7.776,34.875,34.875,0,0,1,6.646,11.757,43.914,43.914,0,0,1,2.27,14.193q0,15.364-7.637,24.545T591.91.492a46.514,46.514,0,0,1,12.466,11.617,118.228,118.228,0,0,1,10.609,16.348A127.589,127.589,0,0,1,622.251,44.1q2.6,6.979,2.6,9.6a10.75,10.75,0,0,1-1.527,5.387,11.3,11.3,0,0,1-4.169,4.216,11.873,11.873,0,0,1-6.109,1.546,10.892,10.892,0,0,1-6.935-2.2,20.162,20.162,0,0,1-4.83-5.574q-2.023-3.373-5.49-9.93L585.966,28.6a103.364,103.364,0,0,0-9.453-15.551q-4.169-5.34-8.462-7.307A26,26,0,0,0,557.235,3.77Zm14.035-57.708H548.649v37.754H570.61a54.536,54.536,0,0,0,14.861-1.733,17.073,17.073,0,0,0,9.205-5.9q3.179-4.169,3.179-11.476A19.509,19.509,0,0,0,595.3-45.366a16.037,16.037,0,0,0-7.1-6.511Q583.9-53.938,571.271-53.938ZM735.15,9.017H712.694V47.895q0,8.338-3.467,12.647a11.246,11.246,0,0,1-17.668.047q-3.385-4.263-3.385-12.507V-57.779q0-9.181,3.715-13.116t11.806-3.935H735.15q13.952,0,21.465,2.436a30.968,30.968,0,0,1,12.838,7.776,35.415,35.415,0,0,1,8.215,13.3,52.459,52.459,0,0,1,2.807,17.706q0,20.985-11.393,31.805T735.15,9.017Zm-5.944-62.954H712.694v41.97h16.512a43.842,43.842,0,0,0,14.489-2.061,16.974,16.974,0,0,0,8.875-6.745q3.055-4.684,3.055-12.272,0-9.087-4.706-14.8Q745.635-53.938,729.205-53.938ZM833.89,3.77H825.3V47.895q0,8.712-3.385,12.834a10.886,10.886,0,0,1-8.834,4.122A10.674,10.674,0,0,1,804,60.542q-3.22-4.309-3.22-12.647V-57.779q0-8.993,3.55-13.022t11.476-4.028h39.876a106.888,106.888,0,0,1,14.118.8A32.252,32.252,0,0,1,880.371-70.8a30.748,30.748,0,0,1,10.072,7.776,34.875,34.875,0,0,1,6.646,11.757,43.914,43.914,0,0,1,2.27,14.193q0,15.364-7.637,24.545T868.565.492a46.516,46.516,0,0,1,12.466,11.617A118.222,118.222,0,0,1,891.64,28.456,127.6,127.6,0,0,1,898.9,44.1q2.6,6.979,2.6,9.6a10.749,10.749,0,0,1-1.527,5.387,11.3,11.3,0,0,1-4.169,4.216,11.874,11.874,0,0,1-6.109,1.546,10.892,10.892,0,0,1-6.935-2.2,20.163,20.163,0,0,1-4.83-5.574q-2.023-3.373-5.49-9.93L862.62,28.6a103.369,103.369,0,0,0-9.453-15.551Q849,7.705,844.705,5.738A26,26,0,0,0,833.89,3.77Zm14.035-57.708H825.3v37.754h21.961a54.536,54.536,0,0,0,14.861-1.733,17.073,17.073,0,0,0,9.205-5.9q3.179-4.169,3.179-11.476a19.51,19.51,0,0,0-2.559-10.071,16.037,16.037,0,0,0-7.1-6.511Q860.556-53.938,847.925-53.938ZM1000,46.958,994.219,29.72H945.014l-5.779,17.612q-3.385,10.305-5.779,13.912t-7.843,3.607a10.848,10.848,0,0,1-8.173-3.841,12.492,12.492,0,0,1-3.55-8.712,21.842,21.842,0,0,1,.826-5.808q.826-3,2.724-8.338L948.4-51.034q1.321-3.841,3.179-9.228a49.348,49.348,0,0,1,3.963-8.947,17.081,17.081,0,0,1,5.531-5.761,15.344,15.344,0,0,1,8.462-2.2,15.505,15.505,0,0,1,8.545,2.2A17.379,17.379,0,0,1,983.61-69.3a41.707,41.707,0,0,1,3.55,7.448q1.445,3.981,3.674,10.633l31.62,88.623q3.715,10.118,3.715,14.708a12.962,12.962,0,0,1-3.509,8.759,10.891,10.891,0,0,1-8.462,3.981,9.884,9.884,0,0,1-4.954-1.171,10.515,10.515,0,0,1-3.467-3.185,30.609,30.609,0,0,1-3.013-6.183Q1001.154,50.143,1000,46.958ZM951.454,8.829h36.161L969.369-47.848Zm117.4-69.137v48.153l48.132-56.959a46.651,46.651,0,0,1,5.9-6.089,10.006,10.006,0,0,1,6.481-1.967,11.115,11.115,0,0,1,8.545,3.513,12.137,12.137,0,0,1,3.261,8.572q0,6.089-5.531,12.085l-29.8,32.039,34.344,55.835a72.186,72.186,0,0,1,5.449,10.165,21.957,21.957,0,0,1,1.816,8.478,11.21,11.21,0,0,1-11.806,11.336,13.271,13.271,0,0,1-8.338-2.483,20.476,20.476,0,0,1-5.449-6.6q-2.229-4.122-3.963-7.495L1088.914-2.319l-20.062,21.828V47.895q0,8.619-3.467,12.788a11.072,11.072,0,0,1-8.916,4.169,10.918,10.918,0,0,1-6.027-1.874,12.465,12.465,0,0,1-4.458-5.059,18.264,18.264,0,0,1-1.4-6.089q-.248-3.466-.248-10.024V-60.308q0-8.431,3.261-12.647a10.62,10.62,0,0,1,8.875-4.216A11.039,11.039,0,0,1,1065.426-73Q1068.852-68.833,1068.852-60.308Zm125.159,0v39.347h52.92V-60.308q0-8.431,3.344-12.647a10.679,10.679,0,0,1,8.792-4.216A11.039,11.039,0,0,1,1268.025-73q3.426,4.169,3.426,12.694v108.2q0,8.525-3.467,12.741a11.024,11.024,0,0,1-8.916,4.216,10.606,10.606,0,0,1-8.834-4.263q-3.3-4.263-3.3-12.694V1.709h-52.92V47.895q0,8.525-3.468,12.741a11.024,11.024,0,0,1-8.916,4.216,10.606,10.606,0,0,1-8.834-4.263q-3.3-4.263-3.3-12.694v-108.2q0-8.431,3.261-12.647a10.619,10.619,0,0,1,8.875-4.216A11.039,11.039,0,0,1,1190.585-73Q1194.011-68.833,1194.011-60.308ZM1375.228,46.958l-5.779-17.238h-49.205l-5.779,17.612q-3.385,10.305-5.779,13.912t-7.843,3.607a10.848,10.848,0,0,1-8.173-3.841,12.492,12.492,0,0,1-3.55-8.712,21.844,21.844,0,0,1,.826-5.808q.826-3,2.724-8.338l30.959-89.185q1.321-3.841,3.179-9.228a49.344,49.344,0,0,1,3.963-8.947,17.08,17.08,0,0,1,5.531-5.761,15.344,15.344,0,0,1,8.462-2.2,15.505,15.505,0,0,1,8.545,2.2,17.378,17.378,0,0,1,5.531,5.668,41.7,41.7,0,0,1,3.55,7.448q1.445,3.981,3.674,10.633l31.62,88.623Q1401.4,47.52,1401.4,52.11a12.962,12.962,0,0,1-3.509,8.759,10.891,10.891,0,0,1-8.462,3.981,9.884,9.884,0,0,1-4.953-1.171,10.514,10.514,0,0,1-3.467-3.185,30.6,30.6,0,0,1-3.013-6.183Q1376.384,50.143,1375.228,46.958ZM1326.683,8.829h36.161L1344.6-47.848ZM1452.338,3.77h-8.586V47.895q0,8.712-3.385,12.834a10.887,10.887,0,0,1-8.834,4.122,10.674,10.674,0,0,1-9.081-4.309q-3.22-4.309-3.22-12.647V-57.779q0-8.993,3.55-13.022t11.476-4.028h39.876a106.888,106.888,0,0,1,14.118.8,32.251,32.251,0,0,1,10.568,3.232,30.748,30.748,0,0,1,10.072,7.776,34.874,34.874,0,0,1,6.646,11.757,43.912,43.912,0,0,1,2.27,14.193q0,15.364-7.637,24.545T1487.012.492a46.514,46.514,0,0,1,12.466,11.617,118.222,118.222,0,0,1,10.609,16.348,127.591,127.591,0,0,1,7.265,15.645q2.6,6.979,2.6,9.6a10.75,10.75,0,0,1-1.527,5.387,11.3,11.3,0,0,1-4.169,4.216,11.873,11.873,0,0,1-6.109,1.546,10.892,10.892,0,0,1-6.935-2.2,20.163,20.163,0,0,1-4.83-5.574q-2.023-3.373-5.49-9.93L1481.068,28.6a103.359,103.359,0,0,0-9.453-15.551q-4.169-5.34-8.462-7.307A26,26,0,0,0,1452.338,3.77Zm14.035-57.708h-22.621v37.754h21.961a54.535,54.535,0,0,0,14.861-1.733,17.073,17.073,0,0,0,9.205-5.9q3.179-4.169,3.179-11.476a19.51,19.51,0,0,0-2.559-10.071,16.037,16.037,0,0,0-7.1-6.511Q1479-53.938,1466.373-53.938Z" transform="translate(-5.885 79.671)" fill="none" stroke="#000" stroke-width="5"/>
</svg>
